<svg width="24" height="24" viewBox="0 0 24 24" xmlns="http://www.w3.org/2000/svg">
  <path
    d="M9 3.75C8.58579 3.75 8.25 4.08579 8.25 4.5V6H6.75V4.5C6.75 4.08579 6.41421 3.75 6 3.75C5.58579 3.75 5.25 4.08579 5.25 4.5V6.12891C4.24444 6.43936 3.49695 7.37424 3.49609 8.48438V15.5156C3.49695 16.6258 4.24444 17.5606 5.25 17.8711V19.5C5.25 19.9142 5.58579 20.25 6 20.25C6.41421 20.25 6.75 19.9142 6.75 19.5V18H8.25V19.5C8.25 19.9142 8.58579 20.25 9 20.25C9.41421 20.25 9.75 19.9142 9.75 19.5V18H14.25V19.5C14.25 19.9142 14.5858 20.25 15 20.25C15.4142 20.25 15.75 19.9142 15.75 19.5V18H17.25V19.5C17.25 19.9142 17.5858 20.25 18 20.25C18.4142 20.25 18.75 19.9142 18.75 19.5V17.8711C19.7556 17.5606 20.5031 16.6258 20.5039 15.5156V8.48438C20.5031 7.37424 19.7556 6.43936 18.75 6.12891V4.5C18.75 4.08579 18.4142 3.75 18 3.75C17.5858 3.75 17.25 4.08579 17.25 4.5V6H15.75V4.5C15.75 4.08579 15.4142 3.75 15 3.75C14.5858 3.75 14.25 4.08579 14.25 4.5V6H9.75V4.5C9.75 4.08579 9.41421 3.75 9 3.75ZM7.5 7.5H16.5C17.3284 7.5 18 8.17157 18 9V15C18 15.8284 17.3284 16.5 16.5 16.5H7.5C6.67157 16.5 6 15.8284 6 15V9C6 8.17157 6.67157 7.5 7.5 7.5ZM9 9.75C8.58579 9.75 8.25 10.0858 8.25 10.5V13.5C8.25 13.9142 8.58579 14.25 9 14.25H15C15.4142 14.25 15.75 13.9142 15.75 13.5V10.5C15.75 10.0858 15.4142 9.75 15 9.75H9Z"
    fill="currentColor"
  />
</svg>
