<svg width="24" height="24" viewBox="0 0 24 24" xmlns="http://www.w3.org/2000/svg">
  <path
    d="M8.03033 4.46967C8.32322 4.17678 8.7981 4.17678 9.09099 4.46967L19.5303 14.909C19.8232 15.2019 19.8232 15.6768 19.5303 15.9697L15.9697 19.5303C15.6768 19.8232 15.2019 19.8232 14.909 19.5303L4.46967 9.09099C4.17678 8.7981 4.17678 8.32322 4.46967 8.03033L8.03033 4.46967ZM8.56066 6.06066L6.06066 8.56066L9.75 12.25H13.2803L15.5303 10L12 6.46967L10.0303 8.43934C9.73744 8.73223 9.26256 8.73223 8.96967 8.43934C8.67678 8.14645 8.67678 7.67157 8.96967 7.37868L10.9393 5.40901L8.56066 3.03033V6.06066Z"
    fill="currentColor"
  />
  <path
    d="M12.75 17.25C12.75 16.8358 13.0858 16.5 13.5 16.5H19.5C19.9142 16.5 20.25 16.8358 20.25 17.25C20.25 17.6642 19.9142 18 19.5 18H13.5C13.0858 18 12.75 17.6642 12.75 17.25Z"
    fill="currentColor"
  />
</svg>
