<svg width="24" height="24" viewBox="0 0 24 24" xmlns="http://www.w3.org/2000/svg">
  <path
    d="M6 3.75C4.75736 3.75 3.75 4.75736 3.75 6V18C3.75 19.2426 4.75736 20.25 6 20.25H18C19.2426 20.25 20.25 19.2426 20.25 18V6C20.25 4.75736 19.2426 3.75 18 3.75H6ZM6.75 6.75H17.25V10.5H6.75V6.75ZM7.5 13.125C7.08579 13.125 6.75 13.4608 6.75 13.875C6.75 14.2892 7.08579 14.625 7.5 14.625H9C9.41421 14.625 9.75 14.2892 9.75 13.875C9.75 13.4608 9.41421 13.125 9 13.125H7.5ZM12 13.125C11.5858 13.125 11.25 13.4608 11.25 13.875C11.25 14.2892 11.5858 14.625 12 14.625H13.5C13.9142 14.625 14.25 14.2892 14.25 13.875C14.25 13.4608 13.9142 13.125 13.5 13.125H12ZM16.5 13.125C16.0858 13.125 15.75 13.4608 15.75 13.875C15.75 14.2892 16.0858 14.625 16.5 14.625H18C18.4142 14.625 18.75 14.2892 18.75 13.875C18.75 13.4608 18.4142 13.125 18 13.125H16.5ZM7.5 16.125C7.08579 16.125 6.75 16.4608 6.75 16.875C6.75 17.2892 7.08579 17.625 7.5 17.625H9C9.41421 17.625 9.75 17.2892 9.75 16.875C9.75 16.4608 9.41421 16.125 9 16.125H7.5ZM12 16.125C11.5858 16.125 11.25 16.4608 11.25 16.875C11.25 17.2892 11.5858 17.625 12 17.625H16.5C16.9142 17.625 17.25 17.2892 17.25 16.875C17.25 16.4608 16.9142 16.125 16.5 16.125H12Z"
    fill="currentColor"
  />
</svg>
