<svg width="24" height="24" viewBox="0 0 24 24" xmlns="http://www.w3.org/2000/svg">
  <path
    d="M12 3.75C9.92893 3.75 8.25 5.42893 8.25 7.5C8.25 8.58864 8.7136 9.56901 9.45338 10.2533L6.53033 13.1763C6.23744 13.4692 6.23744 13.9441 6.53033 14.237L9.76299 17.4697C10.0559 17.7626 10.5308 17.7626 10.8237 17.4697L13.7467 14.5466C14.431 15.2864 15.4114 15.75 16.5 15.75C18.5711 15.75 20.25 14.0711 20.25 12C20.25 9.92893 18.5711 8.25 16.5 8.25C15.4114 8.25 14.431 8.7136 13.7467 9.45338L12.5466 8.25326C13.2864 7.56899 13.75 6.58864 13.75 5.5C13.75 4.5335 12.9665 3.75 12 3.75ZM12 5.25C12.1381 5.25 12.25 5.36193 12.25 5.5C12.25 6.19036 11.9697 6.81522 11.5165 7.2684L10.7684 8.0165C10.4755 8.30939 10.4755 8.78427 10.7684 9.07716L12.9228 11.2316C13.2157 11.5245 13.6906 11.5245 13.9835 11.2316L14.7316 10.4835C15.1848 10.0303 15.8096 9.75 16.5 9.75C17.7426 9.75 18.75 10.7574 18.75 12C18.75 13.2426 17.7426 14.25 16.5 14.25C15.8096 14.25 15.1848 13.9697 14.7316 13.5165L13.9835 12.7684C13.6906 12.4755 13.2157 12.4755 12.9228 12.7684L10.2933 15.3978L8.60216 13.7067L11.2316 11.0772C11.5245 10.7843 11.5245 10.3094 11.2316 10.0165L10.4835 9.2684C10.0303 8.81522 9.75 8.19036 9.75 7.5C9.75 6.25736 10.7574 5.25 12 5.25Z"
    fill="currentColor"
  />
</svg>