<svg width="24" height="24" viewBox="0 0 24 24" xmlns="http://www.w3.org/2000/svg">
  <path
    d="M7.5 3.75C6.25736 3.75 5.25 4.75736 5.25 6V18C5.25 19.2426 6.25736 20.25 7.5 20.25H16.5C17.7426 20.25 18.75 19.2426 18.75 18V9.75L13.5 3.75H7.5ZM13.5 5.96256L16.8132 9.75H14.25C13.8358 9.75 13.5 9.41421 13.5 9V5.96256ZM9 11.25C8.58579 11.25 8.25 11.5858 8.25 12C8.25 12.4142 8.58579 12.75 9 12.75H11.25V15C11.25 15.4142 11.5858 15.75 12 15.75C12.4142 15.75 12.75 15.4142 12.75 15V12.75H15C15.4142 12.75 15.75 12.4142 15.75 12C15.75 11.5858 15.4142 11.25 15 11.25H12.75V9C12.75 8.58579 12.4142 8.25 12 8.25C11.5858 8.25 11.25 8.58579 11.25 9V11.25H9Z"
    fill="currentColor"
  />
</svg>