<svg width="24" height="24" viewBox="0 0 24 24" xmlns="http://www.w3.org/2000/svg">
  <path
    d="M3.75 7.5C3.75 6.25736 4.75736 5.25 6 5.25H9.31066C9.9074 5.25 10.4797 5.48705 10.9017 5.90901L11.5607 6.56799C11.7014 6.7087 11.8922 6.78775 12.0912 6.78775H18C19.2426 6.78775 20.25 7.79511 20.25 9.03775V16.5C20.25 17.7426 19.2426 18.75 18 18.75H6C4.75736 18.75 3.75 17.7426 3.75 16.5V7.5ZM12 10.125C11.5858 10.125 11.25 10.4608 11.25 10.875V12.375H9.75C9.33579 12.375 9 12.7108 9 13.125C9 13.5392 9.33579 13.875 9.75 13.875H11.25V15.375C11.25 15.7892 11.5858 16.125 12 16.125C12.4142 16.125 12.75 15.7892 12.75 15.375V13.875H14.25C14.6642 13.875 15 13.5392 15 13.125C15 12.7108 14.6642 12.375 14.25 12.375H12.75V10.875C12.75 10.4608 12.4142 10.125 12 10.125Z"
    fill="currentColor"
  />
</svg>