<svg width="24" height="24" viewBox="0 0 24 24" xmlns="http://www.w3.org/2000/svg">
  <path
    d="M4.5 5.25C3.25736 5.25 2.25 6.25736 2.25 7.5V16.5C2.25 17.7426 3.25736 18.75 4.5 18.75H19.5C20.7426 18.75 21.75 17.7426 21.75 16.5V7.5C21.75 6.25736 20.7426 5.25 19.5 5.25H4.5ZM6.53033 9.21967C6.23744 8.92678 5.76256 8.92678 5.46967 9.21967C5.17678 9.51256 5.17678 9.98744 5.46967 10.2803L7.18934 12L5.46967 13.7197C5.17678 14.0126 5.17678 14.4874 5.46967 14.7803C5.76256 15.0732 6.23744 15.0732 6.53033 14.7803L8.78033 12.5303C9.07322 12.2374 9.07322 11.7626 8.78033 11.4697L6.53033 9.21967ZM10.5 14.25C10.0858 14.25 9.75 14.5858 9.75 15C9.75 15.4142 10.0858 15.75 10.5 15.75H14.25C14.6642 15.75 15 15.4142 15 15C15 14.5858 14.6642 14.25 14.25 14.25H10.5Z"
    fill="currentColor"
  />
</svg>
