<svg width="24" height="24" viewBox="0 0 24 24" xmlns="http://www.w3.org/2000/svg">
  <path
    d="M4.5 4.5C3.25736 4.5 2.25 5.50736 2.25 6.75V17.25C2.25 18.4926 3.25736 19.5 4.5 19.5H19.5C20.7426 19.5 21.75 18.4926 21.75 17.25V6.75C21.75 5.50736 20.7426 4.5 19.5 4.5H4.5ZM6.53033 8.46967C6.23744 8.17678 5.76256 8.17678 5.46967 8.46967C5.17678 8.76256 5.17678 9.23744 5.46967 9.53033L7.93934 12L5.46967 14.4697C5.17678 14.7626 5.17678 15.2374 5.46967 15.5303C5.76256 15.8232 6.23744 15.8232 6.53033 15.5303L9.53033 12.5303C9.82322 12.2374 9.82322 11.7626 9.53033 11.4697L6.53033 8.46967ZM11.25 15C10.8358 15 10.5 15.3358 10.5 15.75C10.5 16.1642 10.8358 16.5 11.25 16.5H16.5C16.9142 16.5 17.25 16.1642 17.25 15.75C17.25 15.3358 16.9142 15 16.5 15H11.25Z"
    fill="currentColor"
  />
</svg>
