<svg width="16" height="16" viewBox="0 0 16 16" xmlns="http://www.w3.org/2000/svg">
  <path fill="#F3F3F3" d="M5.38 4.32a2.75 2.75 0 0 1 3.89 0l.35.35-1.06 1.06-.35-.35a1.25 1.25 0 1 0-1.77 1.77l1.42 1.42a1.25 1.25 0 0 0 1.77 0l.35-.35 1.06 1.06-.35.35a2.75 2.75 0 0 1-3.89 0L5.38 8.21a2.75 2.75 0 0 1 0-3.89Zm5.24-.11 1.42 1.42a2.75 2.75 0 0 1 0 3.89 2.75 2.75 0 0 1-3.89 0l-.35-.35 1.06-1.06.35.35a1.25 1.25 0 1 0 1.77-1.77L9.56 5.27a1.25 1.25 0 0 0-1.77 0l-.35.35-1.06-1.06.35-.35a2.75 2.75 0 0 1 3.89 0Z"/>
</svg>